<svg width="32" height="32" viewBox="0 0 32 32" xmlns="http://www.w3.org/2000/svg">
  <path d="M4 10
           a2 2 0 0 0 0 -4
           V5 a1 1 0 0 1 1 -1
           h22 a1 1 0 0 1 1 1
           v1
           a2 2 0 0 0 0 4
           v2
           a2 2 0 0 0 0 4
           v2
           a2 2 0 0 0 0 4
           v1
           a1 1 0 0 1 -1 1
           H5 a1 1 0 0 1 -1 -1
           v-1
           a2 2 0 0 0 0 -4
           v-2
           a2 2 0 0 0 0 -4
           Z"
        fill="#1d2030" stroke="#d98e56" stroke-width="1.3"/>
  <line x1="13" y1="4" x2="13" y2="9" stroke="#d98e56" stroke-width="1.3" stroke-dasharray="1.5 1.5"/>
  <line x1="13" y1="13" x2="13" y2="19" stroke="#d98e56" stroke-width="1.3" stroke-dasharray="1.5 1.5"/>
  <line x1="13" y1="23" x2="13" y2="28" stroke="#d98e56" stroke-width="1.3" stroke-dasharray="1.5 1.5"/>
  <circle cx="21" cy="16" r="4" fill="#d98e56"/>
  <path d="M19.3 16 l1.2 1.2 l2.2 -2.4" stroke="#1d2030" stroke-width="1" fill="none" stroke-linecap="round" stroke-linejoin="round"/>
</svg>
